<?xml version="1.0" encoding="UTF-8" standalone="no"?>
<!-- Created with Inkscape (http://www.inkscape.org/) -->

<svg
   xmlns:dc="http://purl.org/dc/elements/1.1/"
   xmlns:cc="http://creativecommons.org/ns#"
   xmlns:rdf="http://www.w3.org/1999/02/22-rdf-syntax-ns#"
   xmlns:svg="http://www.w3.org/2000/svg"
   xmlns="http://www.w3.org/2000/svg"
   xmlns:sodipodi="http://sodipodi.sourceforge.net/DTD/sodipodi-0.dtd"
   xmlns:inkscape="http://www.inkscape.org/namespaces/inkscape"
   version="1.1"
   id="svg2"
   width="23.295183"
   height="16.111593"
   viewBox="0 0 23.295183 16.111593"
   sodipodi:docname="1-2_1-2.svg"
   inkscape:version="0.92.4 5da689c313, 2019-01-14">
  <metadata
     id="metadata8">
    <rdf:RDF>
      <cc:Work
         rdf:about="">
        <dc:format>image/svg+xml</dc:format>
        <dc:type
           rdf:resource="http://purl.org/dc/dcmitype/StillImage" />
        <dc:title />
      </cc:Work>
    </rdf:RDF>
  </metadata>
  <defs
     id="defs6" />
  <sodipodi:namedview
     pagecolor="#ffffff"
     bordercolor="#666666"
     borderopacity="1"
     objecttolerance="10"
     gridtolerance="10"
     guidetolerance="10"
     inkscape:pageopacity="0"
     inkscape:pageshadow="2"
     inkscape:window-width="640"
     inkscape:window-height="480"
     id="namedview4"
     showgrid="false"
     inkscape:zoom="1.9003495"
     inkscape:cx="147.79183"
     inkscape:cy="21.219448"
     inkscape:current-layer="svg2"
     fit-margin-top="0"
     fit-margin-left="0"
     fit-margin-right="0"
     fit-margin-bottom="0" />
  <path
     style="opacity:1;fill:#0088dd;fill-opacity:1;stroke:#0026c6;stroke-width:0.178;stroke-linecap:butt;stroke-linejoin:miter;stroke-miterlimit:4;stroke-dasharray:none;stroke-dashoffset:0;stroke-opacity:0.64248705;paint-order:normal"
     d="m 12.09604,0.089 -0.02326,15.933594 h 10.4752 c 0.364407,0 0.658204,-0.293797 0.658204,-0.658203 V 0.747203 C 23.206188,0.382796 22.912391,0.089 22.547984,0.089 Z"
     id="rect823"
     inkscape:connector-curvature="0"
     sodipodi:nodetypes="ccssssc"
     inkscape:export-xdpi="58.770802"
     inkscape:export-ydpi="58.770802" />
  <path
     style="opacity:1;fill:#0088dd;fill-opacity:1;stroke:#0026c6;stroke-width:0.178;stroke-linecap:butt;stroke-linejoin:miter;stroke-miterlimit:4;stroke-dasharray:none;stroke-dashoffset:0;stroke-opacity:0.64248705;paint-order:normal"
     d="M 0.74720312,0.089 C 0.38279648,0.089 0.089,0.382796 0.089,0.747203 v 14.617188 c 0,0.364406 0.29379648,0.658203 0.65820312,0.658203 H 11.187177 L 11.189313,0.089 Z"
     id="rect825"
     inkscape:connector-curvature="0"
     sodipodi:nodetypes="ssssccs"
     inkscape:export-xdpi="58.770802"
     inkscape:export-ydpi="58.770802" />
  <path
     sodipodi:nodetypes="ccssssc"
     inkscape:connector-curvature="0"
     id="path841"
     d="m 46.129848,0.089 -0.01063,15.933594 h 4.786223 c 0.166501,0 0.300739,-0.293797 0.300739,-0.658203 V 0.747203 C 51.206185,0.382796 51.071947,0.089 50.905445,0.089 Z"
     style="opacity:1;fill:#0088dd;fill-opacity:1;stroke:#0026c6;stroke-width:0.17799999;stroke-linecap:butt;stroke-linejoin:miter;stroke-miterlimit:4;stroke-dasharray:none;stroke-dashoffset:0;stroke-opacity:0.64248705;paint-order:normal" />
  <path
     sodipodi:nodetypes="ssssccs"
     inkscape:connector-curvature="0"
     id="path843"
     d="M 28.747203,0.089 C 28.382796,0.089 28.089,0.382796 28.089,0.747203 v 14.617188 c 0,0.364406 0.293796,0.658203 0.658203,0.658203 H 39.187177 L 39.189313,0.089 Z"
     style="opacity:1;fill:#0088dd;fill-opacity:1;stroke:#0026c6;stroke-width:0.178;stroke-linecap:butt;stroke-linejoin:miter;stroke-miterlimit:4;stroke-dasharray:none;stroke-dashoffset:0;stroke-opacity:0.64248705;paint-order:normal" />
  <path
     style="opacity:1;fill:#0088dd;fill-opacity:1;stroke:#0026c6;stroke-width:0.17799999;stroke-linecap:butt;stroke-linejoin:miter;stroke-miterlimit:4;stroke-dasharray:none;stroke-dashoffset:0;stroke-opacity:0.64248705;paint-order:normal"
     d="m 40.129848,0.089 -0.01063,15.933594 h 5.087138 L 45.205554,0.089 Z"
     id="path845"
     inkscape:connector-curvature="0"
     sodipodi:nodetypes="ccccc" />
  <path
     style="opacity:1;fill:#0088dd;fill-opacity:1;stroke:#0026c6;stroke-width:0.17799999;stroke-linecap:butt;stroke-linejoin:miter;stroke-miterlimit:4;stroke-dasharray:none;stroke-dashoffset:0;stroke-opacity:0.64248705;paint-order:normal"
     d="m 75.898118,0.089 -0.0153,15.933594 h 6.890413 c 0.2397,0 0.432954,-0.293797 0.432954,-0.658203 V 0.747203 C 83.206189,0.382796 83.012934,0.089 82.773232,0.089 Z"
     id="path858"
     inkscape:connector-curvature="0"
     sodipodi:nodetypes="ccssssc" />
  <path
     style="opacity:1;fill:#0088dd;fill-opacity:1;stroke:#0026c6;stroke-width:0.178;stroke-linecap:butt;stroke-linejoin:miter;stroke-miterlimit:4;stroke-dasharray:none;stroke-dashoffset:0;stroke-opacity:0.64248705;paint-order:normal"
     d="m 60.4957,0.089 c -0.225166,0 -0.406701,0.293796 -0.406701,0.658203 v 14.617188 c 0,0.364406 0.181535,0.658203 0.406701,0.658203 h 6.450817 L 66.947837,0.089 Z"
     id="path860"
     inkscape:connector-curvature="0"
     sodipodi:nodetypes="ssssccs" />
  <path
     sodipodi:nodetypes="ccccc"
     inkscape:connector-curvature="0"
     id="path862"
     d="m 68.064284,0.089 -0.0142,15.933594 H 74.84731 L 74.846232,0.089 Z"
     style="opacity:1;fill:#0088dd;fill-opacity:1;stroke:#0026c6;stroke-width:0.17799999;stroke-linecap:butt;stroke-linejoin:miter;stroke-miterlimit:4;stroke-dasharray:none;stroke-dashoffset:0;stroke-opacity:0.64248705;paint-order:normal" />
  <path
     sodipodi:nodetypes="ccssssc"
     inkscape:connector-curvature="0"
     id="path864"
     d="m 100.28623,0.089 -0.0312,15.933594 h 14.06727 c 0.48937,0 0.8839,-0.293797 0.8839,-0.658203 V 0.747203 C 115.20619,0.382796 114.81164,0.089 114.32227,0.089 Z"
     style="opacity:1;fill:#0088dd;fill-opacity:1;stroke:#0026c6;stroke-width:0.17799999;stroke-linecap:butt;stroke-linejoin:miter;stroke-miterlimit:4;stroke-dasharray:none;stroke-dashoffset:0;stroke-opacity:0.64248705;paint-order:normal" />
  <path
     sodipodi:nodetypes="ssssccs"
     inkscape:connector-curvature="0"
     id="path866"
     d="m 92.506728,0.089 c -0.231277,0 -0.417732,0.293796 -0.417732,0.658203 v 14.617188 c 0,0.364406 0.186455,0.658203 0.417732,0.658203 h 6.625799 L 99.133883,0.089 Z"
     style="opacity:1;fill:#0088dd;fill-opacity:1;stroke:#0026c6;stroke-width:0.178;stroke-linecap:butt;stroke-linejoin:miter;stroke-miterlimit:4;stroke-dasharray:none;stroke-dashoffset:0;stroke-opacity:0.64248705;paint-order:normal" />
  <path
     sodipodi:nodetypes="ccssssc"
     inkscape:connector-curvature="0"
     id="path892"
     d="m 141.80166,0.089 -0.0113,15.933594 h 5.09566 c 0.17727,0 0.32018,-0.293797 0.32018,-0.658203 V 0.747203 C 147.20619,0.382796 147.06327,0.089 146.886,0.089 Z"
     style="opacity:1;fill:#0088dd;fill-opacity:1;stroke:#0026c6;stroke-width:0.17799999;stroke-linecap:butt;stroke-linejoin:miter;stroke-miterlimit:4;stroke-dasharray:none;stroke-dashoffset:0;stroke-opacity:0.64248705;paint-order:normal" />
  <path
     sodipodi:nodetypes="ssssccs"
     inkscape:connector-curvature="0"
     id="path894"
     d="m 124.38259,0.089 c -0.16255,0 -0.29359,0.293796 -0.29359,0.658203 v 14.617188 c 0,0.364406 0.13104,0.658203 0.29359,0.658203 h 4.65675 L 129.0403,0.089 Z"
     style="opacity:1;fill:#0088dd;fill-opacity:1;stroke:#0026c6;stroke-width:0.178;stroke-linecap:butt;stroke-linejoin:miter;stroke-miterlimit:4;stroke-dasharray:none;stroke-dashoffset:0;stroke-opacity:0.64248705;paint-order:normal" />
  <path
     style="opacity:1;fill:#0088dd;fill-opacity:1;stroke:#0026c6;stroke-width:0.17799999;stroke-linecap:butt;stroke-linejoin:miter;stroke-miterlimit:4;stroke-dasharray:none;stroke-dashoffset:0;stroke-opacity:0.64248705;paint-order:normal"
     d="m 130.03345,0.089 -0.0225,15.933594 h 10.74384 L 140.75314,0.089 Z"
     id="path896"
     inkscape:connector-curvature="0"
     sodipodi:nodetypes="ccccc" />
  <path
     style="opacity:1;fill:#0088dd;fill-opacity:1;stroke:#0026c6;stroke-width:0.17799999;stroke-linecap:butt;stroke-linejoin:miter;stroke-miterlimit:4;stroke-dasharray:none;stroke-dashoffset:0;stroke-opacity:0.64248705;paint-order:normal"
     d="m 167.34028,0.089 -0.0227,15.933594 h 10.27887 c 0.35597,0 0.59643,-0.293797 0.59643,-0.658203 V 0.747203 C 178.19287,0.382796 177.95239,0.089 177.59642,0.089 Z"
     id="path909"
     inkscape:connector-curvature="0"
     sodipodi:nodetypes="ccssssc" />
  <path
     style="opacity:1;fill:#0088dd;fill-opacity:1;stroke:#0026c6;stroke-width:0.178;stroke-linecap:butt;stroke-linejoin:miter;stroke-miterlimit:4;stroke-dasharray:none;stroke-dashoffset:0;stroke-opacity:0.64248705;paint-order:normal"
     d="m 155.36928,0.089 c -0.16255,0 -0.29359,0.293796 -0.29359,0.658203 v 14.617188 c 0,0.364406 0.13104,0.658203 0.29359,0.658203 h 4.65675 L 160.02699,0.089 Z"
     id="path911"
     inkscape:connector-curvature="0"
     sodipodi:nodetypes="ssssccs" />
  <path
     sodipodi:nodetypes="ccccc"
     inkscape:connector-curvature="0"
     id="path913"
     d="m 161.00843,0.089 -0.0108,15.933594 h 5.15277 L 166.14962,0.089 Z"
     style="opacity:1;fill:#0088dd;fill-opacity:1;stroke:#0026c6;stroke-width:0.17799999;stroke-linecap:butt;stroke-linejoin:miter;stroke-miterlimit:4;stroke-dasharray:none;stroke-dashoffset:0;stroke-opacity:0.64248705;paint-order:normal" />
  <path
     sodipodi:nodetypes="ccssssc"
     inkscape:connector-curvature="0"
     id="path926"
     d="m 206.78793,0.089 -0.0109,15.933594 h 4.91 c 0.17081,0 0.30851,-0.293797 0.30851,-0.658203 V 0.747203 c 0,-0.364407 -0.13771,-0.658203 -0.30852,-0.658203 z"
     style="opacity:1;fill:#0088dd;fill-opacity:1;stroke:#0026c6;stroke-width:0.17799997;stroke-linecap:butt;stroke-linejoin:miter;stroke-miterlimit:4;stroke-dasharray:none;stroke-dashoffset:0;stroke-opacity:0.64248705;paint-order:normal" />
  <path
     sodipodi:nodetypes="ssssccs"
     inkscape:connector-curvature="0"
     id="path928"
     d="m 189.17194,0.089 c -0.16255,0 -0.29359,0.293796 -0.29359,0.658203 v 14.617188 c 0,0.364406 0.13104,0.658203 0.29359,0.658203 h 4.65675 L 193.82965,0.089 Z"
     style="opacity:1;fill:#0088dd;fill-opacity:1;stroke:#0026c6;stroke-width:0.178;stroke-linecap:butt;stroke-linejoin:miter;stroke-miterlimit:4;stroke-dasharray:none;stroke-dashoffset:0;stroke-opacity:0.64248705;paint-order:normal" />
  <path
     style="opacity:1;fill:#0088dd;fill-opacity:1;stroke:#0026c6;stroke-width:0.17799999;stroke-linecap:butt;stroke-linejoin:miter;stroke-miterlimit:4;stroke-dasharray:none;stroke-dashoffset:0;stroke-opacity:0.64248705;paint-order:normal"
     d="m 194.81109,0.089 -0.0108,15.933594 h 5.15277 L 199.95228,0.089 Z"
     id="path930"
     inkscape:connector-curvature="0"
     sodipodi:nodetypes="ccccc" />
  <path
     sodipodi:nodetypes="ccccc"
     inkscape:connector-curvature="0"
     id="path932"
     d="m 200.81109,0.089 -0.0108,15.933594 h 5.15277 L 205.95228,0.089 Z"
     style="opacity:1;fill:#0088dd;fill-opacity:1;stroke:#0026c6;stroke-width:0.17799999;stroke-linecap:butt;stroke-linejoin:miter;stroke-miterlimit:4;stroke-dasharray:none;stroke-dashoffset:0;stroke-opacity:0.64248705;paint-order:normal" />
  <path
     style="opacity:1;fill:#0088dd;fill-opacity:1;stroke:#0026c6;stroke-width:0.17799997;stroke-linecap:butt;stroke-linejoin:miter;stroke-miterlimit:4;stroke-dasharray:none;stroke-dashoffset:0;stroke-opacity:0.64248705;paint-order:normal"
     d="m 231.17036,0.089 -0.0358,15.933594 h 16.30906 c 0.5605,0 0.81502,-0.293797 0.81502,-0.658203 V 0.747203 C 248.25867,0.382796 248.00411,0.089 247.44361,0.089 Z"
     id="path945"
     inkscape:connector-curvature="0"
     sodipodi:nodetypes="ccssssc" />
  <path
     style="opacity:1;fill:#0088dd;fill-opacity:1;stroke:#0026c6;stroke-width:0.178;stroke-linecap:butt;stroke-linejoin:miter;stroke-miterlimit:4;stroke-dasharray:none;stroke-dashoffset:0;stroke-opacity:0.64248705;paint-order:normal"
     d="m 225.43506,0.089 c -0.16255,0 -0.29359,0.293796 -0.29359,0.658203 v 14.617188 c 0,0.364406 0.13104,0.658203 0.29359,0.658203 h 4.65675 L 230.09277,0.089 Z"
     id="path947"
     inkscape:connector-curvature="0"
     sodipodi:nodetypes="ssssccs" />
  <path
     style="opacity:1;fill:#0088dd;fill-opacity:1;stroke:#0026c6;stroke-width:0.17799997;stroke-linecap:butt;stroke-linejoin:miter;stroke-miterlimit:4;stroke-dasharray:none;stroke-dashoffset:0;stroke-opacity:0.64248705;paint-order:normal"
     d="m 307.6768,0.089 0.0358,15.933594 h -16.30906 c -0.5605,0 -0.81502,-0.293797 -0.81502,-0.658203 V 0.747203 C 290.58849,0.382796 290.84305,0.089 291.40355,0.089 Z"
     id="path979"
     inkscape:connector-curvature="0"
     sodipodi:nodetypes="ccssssc" />
  <path
     style="opacity:1;fill:#0088dd;fill-opacity:1;stroke:#0026c6;stroke-width:0.178;stroke-linecap:butt;stroke-linejoin:miter;stroke-miterlimit:4;stroke-dasharray:none;stroke-dashoffset:0;stroke-opacity:0.64248705;paint-order:normal"
     d="m 313.4121,0.089 c 0.16255,0 0.29359,0.293796 0.29359,0.658203 v 14.617188 c 0,0.364406 -0.13104,0.658203 -0.29359,0.658203 h -4.65675 L 308.75439,0.089 Z"
     id="path981"
     inkscape:connector-curvature="0"
     sodipodi:nodetypes="ssssccs" />
  <path
     style="opacity:1;fill:#0088dd;fill-opacity:1;stroke:#0026c6;stroke-width:0.17799999;stroke-linecap:butt;stroke-linejoin:miter;stroke-miterlimit:4;stroke-dasharray:none;stroke-dashoffset:0;stroke-opacity:0.64248705;paint-order:normal"
     d="m 272.6617,0.160116 0.0312,15.933594 h -14.06727 c -0.48937,0 -0.8839,-0.293797 -0.8839,-0.658203 V 0.818319 c 10e-6,-0.364407 0.39456,-0.658203 0.88393,-0.658203 z"
     id="path983"
     inkscape:connector-curvature="0"
     sodipodi:nodetypes="ccssssc" />
  <path
     style="opacity:1;fill:#0088dd;fill-opacity:1;stroke:#0026c6;stroke-width:0.178;stroke-linecap:butt;stroke-linejoin:miter;stroke-miterlimit:4;stroke-dasharray:none;stroke-dashoffset:0;stroke-opacity:0.64248705;paint-order:normal"
     d="m 280.44121,0.160116 c 0.23127,0 0.41773,0.293796 0.41773,0.658203 v 14.617188 c 0,0.364406 -0.18646,0.658203 -0.41773,0.658203 h -6.6258 l -10e-4,-15.933594 z"
     id="path985"
     inkscape:connector-curvature="0"
     sodipodi:nodetypes="ssssccs" />
</svg>
